<svg height="512pt" viewBox="-11 0 512 512.0004" width="512pt" xmlns="http://www.w3.org/2000/svg"><path d="m490 267c0 135.308594-109.691406 245-245 245s-245-109.691406-245-245 109.691406-245 245-245 245 109.691406 245 245zm0 0" fill="#fcd2ae"/><path d="m295.675781 322.941406h-217.199219c-24.976562 0-47.6875 9.695313-64.589843 25.519532 33.578125 95.261718 124.363281 163.539062 231.113281 163.539062h50.675781c52.207031 0 94.53125-42.320312 94.53125-94.527344 0-52.207031-42.324219-94.53125-94.53125-94.53125zm0 0" fill="#f75959"/><path d="m180.648438 417.472656c0-52.207031 42.324218-94.53125 94.53125-94.53125h-196.703126c-24.976562 0-47.6875 9.695313-64.589843 25.519532 33.578125 95.261718 124.363281 163.539062 231.113281 163.539062h30.175781c-52.207031 0-94.527343-42.320312-94.527343-94.527344zm0 0" fill="#ea4747"/><path d="m245.605469 347.027344c-3.773438-2.332032-8.691407-1.070313-10.890625 2.742187l-38.78125 67.167969c-2.15625 3.734375-.882813 8.511719 2.847656 10.679688 3.742188 2.175781 8.542969.894531 10.707031-2.855469l38.613281-66.886719c2.144532-3.710938 1.152344-8.597656-2.496093-10.847656zm0 0" fill="#d7dff7"/><path d="m245.605469 347.027344c-3.773438-2.332032-8.691407-1.070313-10.890625 2.738281l-14.851563 25.71875c2.746094-.988281 5.902344-.769531 8.597657.894531 2.757812 1.699219 4.308593 4.59375 4.542968 7.648438l15.097656-26.152344c2.144532-3.710938 1.152344-8.597656-2.496093-10.847656zm0 0" fill="#bbc7f9"/><path d="m239.78125 319.792969-8.847656 16.652343c-3.476563 6.023438-1.414063 13.726563 4.609375 17.203126l9.816406 5.664062c6.023437 3.480469 13.722656 1.414062 17.199219-4.605469l9.871094-17.042969zm0 0" fill="#5e73dd"/><path d="m248.222656 346.632812 9.148438-17.210937-17.589844-9.628906-8.851562 16.652343c-3.476563 6.023438-1.414063 13.726563 4.609374 17.203126l9.816407 5.664062c1.085937.628906 2.226562 1.066406 3.382812 1.34375-2.746093-4.0625-3.132812-9.492188-.515625-14.023438zm0 0" fill="#4660c5"/><path d="m289.957031 334.878906c4.765625-8.253906 1.9375-18.8125-6.320312-23.578125l-25.65625-14.8125c-8.257813-4.769531-18.8125-1.9375-23.582031 6.316407-4.765626 8.257812-1.9375 18.8125 6.320312 23.582031l25.65625 14.8125c8.257812 4.765625 18.816406 1.9375 23.582031-6.320313zm0 0" fill="#58d5f3"/><path d="m256.441406 316.164062c3.917969-6.785156 11.242188-10.355468 18.566406-9.84375l-17.027343-9.832031c-8.253907-4.769531-18.8125-1.9375-23.578125 6.316407-4.769532 8.257812-1.9375 18.8125 6.316406 23.582031l15.324219 8.847656c-3.019531-5.808594-3.117188-12.980469.398437-19.070313zm0 0" fill="#05bbe7"/><path d="m292.457031 192.113281 27.921875-48.359375 64.335938 37.144532-27.921875 48.363281zm0 0" fill="#bbc7f9"/><path d="m292.457031 192.113281 27.921875-48.359375 18.035156 10.414063-27.921874 48.359375zm0 0" fill="#8d9deb"/><path d="m239.324219 293.050781 56.617187 32.691407c2.132813 1.230468 4.859375.5 6.089844-1.632813l54.765625-94.859375-64.335937-37.144531-54.769532 94.859375c-1.230468 2.128906-.5 4.855468 1.632813 6.085937zm0 0" fill="#abf0ff"/><path d="m324.105469 210.378906-31.648438-18.273437-54.765625 94.859375c-1.230468 2.128906-.5 4.855468 1.628906 6.085937l27.789063 16.042969zm0 0" fill="#58d5f3"/><path d="m290.378906 195.707031 14.085938-24.394531 64.335937 37.144531-14.085937 24.394531zm0 0" fill="#5e73dd"/><path d="m290.378906 195.707031 14.085938-24.398437 31.644531 18.273437-14.085937 24.394531zm0 0" fill="#4660c5"/><path d="m320.820312 180.753906 15.914063-27.558594 31.621094 18.257813-15.910157 27.558594zm0 0" fill="#8d9deb"/><path d="m320.820312 180.753906 15.914063-27.554687 15.289063 8.828125-15.910157 27.554687zm0 0" fill="#5e73dd"/><path d="m413.617188 197.574219-122.136719-70.515625c-6.734375-3.890625-9.042969-12.503906-5.15625-19.238282 3.890625-6.738281 12.503906-9.046874 19.242187-5.15625l122.136719 70.511719c6.734375 3.890625 9.042969 12.503907 5.15625 19.242188-3.890625 6.738281-12.503906 9.046875-19.242187 5.15625zm0 0" fill="#d7dff7"/><path d="m365.796875 137.433594-60.230469-34.769532c-6.734375-3.890624-15.351562-1.582031-19.238281 5.15625-3.890625 6.734376-1.582031 15.347657 5.152344 19.238282l60.230469 34.773437c-9.625-10.613281.046874-27.433593 14.085937-24.398437zm0 0" fill="#bbc7f9"/><path d="m405.886719 160.582031 17.429687-30.191406c1.132813-1.964844.460938-4.476563-1.503906-5.613281l-71.382812-41.214844c-1.96875-1.132812-4.480469-.460938-5.617188 1.507812l-17.429688 30.1875zm0 0" fill="#bbc7f9"/><path d="m371.488281 95.722656-21.058593-12.160156c-1.96875-1.132812-4.480469-.460938-5.617188 1.507812l-17.429688 30.1875 24.621094 14.214844zm0 0" fill="#8d9deb"/><path d="m409.578125 27.023438-58.757813 101.765624 31.625 18.261719 58.757813-101.769531c-12.320313-2.320312-23.453125-8.75-31.625-18.257812zm0 0" fill="#d7dff7"/><path d="m419.171875 83.441406 22.03125-38.160156c-12.316406-2.320312-23.453125-8.75-31.625-18.257812l-22.03125 38.160156c13.671875-9.429688 32.957031 1.660156 31.625 18.257812zm0 0" fill="#bbc7f9"/><path d="m350.820312 128.800781 19.484376-33.746093 31.625 18.257812-19.484376 33.746094zm0 0" fill="#8d9deb"/><path d="m350.820312 128.800781 19.484376-33.746093 15.292968 8.828124-19.484375 33.746094zm0 0" fill="#5e73dd"/><path d="m390.820312 10.203125c-1.3125-4.117187.960938-8.519531 5.078126-9.832031 4.121093-1.3125 8.519531.960937 9.832031 5.082031 7.371093 23.117187 31.070312 36.945313 54.835937 31.957031 4.222656-.886718 8.378906 1.820313 9.265625 6.050782.886719 4.226562-1.824219 8.375-6.050781 9.265624-31.582031 6.625-63.140625-11.714843-72.960938-42.523437zm0 0" fill="#5e73dd"/><path d="m80.722656 345.015625c-5.417968-41.4375-11.664062-97.058594-29.785156-148.917969-.699219-2.003906-2.605469-3.339844-4.726562-3.339844-3.359376 0-5.765626 3.238282-4.792969 6.453126 8.980469 29.679687 22.136719 75.574218 26.679687 137.84375 1.683594 23.097656-5.167968 46.171874-19.75 64.160156-1.5625 1.929687-2.9375 4.007812-4.117187 6.210937 14.34375 20.472657 31.738281 38.644531 51.527343 53.867188 13.203126-6.316407 22.320313-19.792969 22.320313-35.40625 0-10.957031-4.492187-20.859375-11.734375-27.976563-14.347656-14.09375-23.011719-32.953125-25.621094-52.894531zm0 0" fill="#754444"/><path d="m86.5 367.558594c-.058594 5.980468-4.921875 10.808594-10.914062 10.808594-5.398438 0-9.871094-3.921876-10.753907-9.066407-3.273437 11.554688-8.804687 22.441407-16.484375 31.914063-1.558594 1.925781-2.933594 4.003906-4.113281 6.203125 14.34375 20.472656 31.738281 38.648437 51.523437 53.875 13.203126-6.320313 22.320313-19.796875 22.320313-35.40625 0-10.957031-4.492187-20.859375-11.734375-27.976563-8.773438-8.613281-15.40625-19.015625-19.84375-30.351562zm0 0" fill="#633"/><path d="m90.121094 424.785156c-.246094-10.097656-5.597656-18.15625-11.953125-18.003906-6.355469.15625-11.3125 8.46875-11.066407 18.566406.246094 10.097656 5.597657 18.15625 11.953126 18.003906 6.355468-.15625 11.3125-8.46875 11.066406-18.566406zm0 0" fill="#542727"/><path d="m214.570312 397.910156c-14.34375-14.09375-23.007812-32.957031-25.613281-52.894531-5.421875-41.4375-11.667969-97.058594-29.785156-148.917969-.703125-2.007812-2.609375-3.339844-4.730469-3.339844-3.359375 0-5.765625 3.234376-4.792968 6.449219 8.984374 29.679688 22.136718 75.578125 26.679687 137.84375 1.683594 23.097657-5.167969 46.171875-19.75 64.164063-6.011719 7.414062-9.367187 17.070312-8.632813 27.519531 1.367188 19.304687 16.980469 34.917969 36.28125 36.28125 22.957032 1.621094 42.082032-16.519531 42.082032-39.132813 0-10.953124-4.492188-20.859374-11.738282-27.972656zm0 0" fill="#754444"/><path d="m214.570312 397.910156c-8.765624-8.617187-15.402343-19.015625-19.839843-30.351562-.058594 5.980468-4.921875 10.808594-10.914063 10.808594-5.398437 0-9.875-3.921876-10.753906-9.066407-3.273438 11.554688-8.804688 22.441407-16.484375 31.914063-6.011719 7.417968-9.371094 17.070312-8.632813 27.523437 1.363282 19.300781 16.976563 34.914063 36.28125 36.277344 22.957032 1.621094 42.082032-16.519531 42.082032-39.128906 0-10.957031-4.492188-20.863281-11.738282-27.976563zm0 0" fill="#633"/><path d="m198.351562 424.789062c-.246093-10.097656-5.597656-18.160156-11.953124-18.003906-6.355469.152344-11.3125 8.464844-11.066407 18.5625.246094 10.097656 5.597657 18.160156 11.953125 18.003906 6.355469-.15625 11.3125-8.464843 11.066406-18.5625zm0 0" fill="#542727"/><path d="m322.746094 397.910156c-14.34375-14.09375-23.007813-32.957031-25.617188-52.894531-5.417968-41.4375-11.664062-97.058594-29.785156-148.917969-.699219-2.007812-2.605469-3.339844-4.726562-3.339844-3.359376 0-5.765626 3.234376-4.792969 6.449219 8.984375 29.679688 22.136719 75.578125 26.679687 137.84375 1.683594 23.097657-5.167968 46.171875-19.75 64.164063-6.011718 7.414062-9.367187 17.070312-8.628906 27.519531 1.363281 19.304687 16.976562 34.917969 36.277344 36.28125 22.957031 1.621094 42.082031-16.519531 42.082031-39.132813 0-10.953124-4.492187-20.859374-11.738281-27.972656zm0 0" fill="#754444"/><path d="m322.746094 397.910156c-8.769532-8.617187-15.402344-19.015625-19.839844-30.351562-.0625 5.980468-4.921875 10.808594-10.917969 10.808594-5.398437 0-9.871093-3.921876-10.75-9.066407-3.273437 11.554688-8.808593 22.441407-16.484375 31.914063-6.011718 7.417968-9.371094 17.070312-8.632812 27.523437 1.363281 19.300781 16.976562 34.914063 36.28125 36.277344 22.957031 1.621094 42.082031-16.519531 42.082031-39.128906 0-10.957031-4.492187-20.863281-11.738281-27.976563zm0 0" fill="#633"/><path d="m306.523438 424.789062c-.242188-10.097656-5.59375-18.15625-11.953126-18.003906-6.355468.15625-11.308593 8.464844-11.0625 18.5625.246094 10.097656 5.597657 18.160156 11.953126 18.003906 6.355468-.152343 11.308593-8.464843 11.0625-18.5625zm0 0" fill="#542727"/><path d="m418.597656 25.734375c-5.796875-5.382813-10.3125-12.273437-12.867187-20.28125-1.3125-4.121094-5.710938-6.394531-9.832031-5.082031-4.117188 1.3125-6.390626 5.714844-5.078126 9.832031 3.414063 10.707031 9.457032 19.902344 17.210938 27.074219-2.75-6.773438 3.621094-13.667969 10.566406-11.542969zm0 0" fill="#4660c5"/></svg>