<svg id="Layer_3" enable-background="new 0 0 64 64" height="512" viewBox="0 0 64 64" width="512" xmlns="http://www.w3.org/2000/svg"><g><path d="m20 63 2-5h6c2.209 0 4-1.791 4-4v-3l1-4h.697c1.272 0 2.303-1.031 2.303-2.303 0-.455-.135-.899-.387-1.277l-3.613-5.42 2-2v-.682c0-1.167-.05-2.333-.15-3.495l-5.849-12.652c-2.006-1.377-4.426-2.171-7.001-2.171h-3c-8.836 0-16 7.163-16 16 0 5.918 1.378 11.755 4.024 17.049l.976 1.951-2 11z" fill="#ffe2d5"/><path d="m45 2c-9.389 0-17 7.611-17 17 0 1.954.346 3.823.953 5.571l-2.953 4.429 4.789-.684c3.038 4.625 8.264 7.684 14.211 7.684 9.389 0 17-7.611 17-17s-7.611-17-17-17z" fill="#6ec5e7"/><path d="m45 2c-3.929 0-7.537 1.346-10.416 3.584-2.238 2.879-3.584 6.487-3.584 10.416 0 9.389 7.611 17 17 17 3.929 0 7.537-1.346 10.416-3.584 2.238-2.879 3.584-6.487 3.584-10.416 0-9.389-7.611-17-17-17z" fill="#92e0f7"/><path d="m53.609 4.359c-1.722-1.015-3.634-1.733-5.676-2.089l-1.933 7.73-11.467 8.6c-.335.252-.533.647-.533 1.067 0 .736.597 1.333 1.333 1.333.436 0 .863-.121 1.234-.349l12.433-7.651z" fill="#b5b5b5"/><path d="m41.005 17.496c.03-1.102.205-2.196.522-3.253l2.473-8.243-4.132 6.887c-1.222 2.037-1.868 4.368-1.868 6.744 0 .04 0 .08.001.119l.47 3.345c.231.836.544 1.648.935 2.425-.252.439-.406.939-.406 1.48 0 1.657 1.343 3 3 3s3-1.343 3-3c0-1.419-.988-2.601-2.312-2.913-.519-.897-.925-1.852-1.209-2.844z" fill="#3f4042"/><path d="m44.554 28.554c.278-.454.446-.983.446-1.554 0-1.419-.988-2.601-2.312-2.913-.519-.897-.925-1.852-1.209-2.844l-.475-3.747c.03-1.102.205-2.196.522-3.253l2.073-6.91-2.732 4.553c-1.221 2.038-1.867 4.369-1.867 6.745 0 .04 0 .08.001.119l.47 3.345c.231.836.544 1.648.935 2.425-.252.439-.406.939-.406 1.48 0 1.657 1.343 3 3 3 .571 0 1.1-.168 1.554-.446z" fill="#5a5b5d"/><path d="m37.533 21.6c-.335.252-.533.647-.533 1.067 0 .736.597 1.333 1.333 1.333.436 0 .863-.121 1.234-.349l12.433-7.651 4.88-9.149c-1.556-1.521-3.4-2.745-5.447-3.582l-2.433 9.731z" fill="#ddd"/><path d="m37.533 21.6c-.335.252-.533.647-.533 1.067 0 .736.597 1.333 1.333 1.333.436 0 .863-.121 1.234-.349l12.433-7.651 4.88-9.149c-1.556-1.521-3.4-2.745-5.447-3.582l-2.433 9.731z" fill="#ddd"/><path d="m13 45c-2.209 0-4-1.791-4-4v-3c0-1.657 1.343-3 3-3s3 1.343 3 3v2l5.69-4.064c.822-.587 1.31-1.536 1.31-2.546 0-1.411-.944-2.647-2.306-3.019l-4.767-1.3c-2.318-.632-3.927-2.738-3.927-5.142 0-1.247.437-2.454 1.235-3.412l2.678-3.214c-7.358 1.44-12.913 7.917-12.913 15.697 0 5.918 1.378 11.755 4.024 17.049l.976 1.951.266-.106c2.953-1.182 5.11-3.775 5.734-6.894z" fill="#3f4042"/><path d="m20.69 35.936c.822-.587 1.31-1.536 1.31-2.546 0-1.411-.944-2.647-2.306-3.019l-4.767-1.3c-2.318-.632-3.927-2.738-3.927-5.142 0-1.247.437-2.454 1.235-3.412l2.678-3.214c-1.647.322-3.195.908-4.619 1.693-3.821 2.923-6.294 7.518-6.294 12.7 0 5.918 1.378 11.755 4.024 17.049l.976 1.951.266-.106c.199-.08.388-.176.58-.269 1.597-1.354 2.732-3.211 3.154-5.321-2.209 0-4-1.791-4-4v-3c0-1.657 1.343-3 3-3s3 1.343 3 3v2z" fill="#5a5b5d"/></g></svg>