<svg enable-background="new 0 0 500 500" height="512" viewBox="0 0 500 500" width="512" xmlns="http://www.w3.org/2000/svg"><g id="圖層_7"><g><g><path d="m121.6 273.7s-5.3-7-8.5-15.8c-2.8-7.8-3-17.2-10.5-22-6.9-4.4-8.5-12.7-10.4-17.9-2.9-7.9-7-5.9-9-2.6-2.6 4.5 3.5 9.2 4.9 20 0 0-20.1 13.5-10.6 22.8 0 0 4.8 8.6 12.7 12.7 2.1 1.1 3.9 2.8 4.9 4.9l1.5 3z" fill="#f6b7a9"/></g><g><path d="m392.4 136.5s3.2 6.2 2.7 7.3c-10.2 23.3 9.4 58.6 24.6 90.2 11.5 23.8 13.3 60.2-1.1 88.6-8.3 16.4-36 27.2-54.2 25l-162.5-19.6c-15.4-1.9-17.5-12.3-20.9-27.4-4.4-19.4.5-46.6 22-85.8 5.9-10.7 12.7-46.8-8.2-86.9z" fill="#072e37"/></g><g><path d="m245.4 250.1s-16.5-1.2-39.8 35.9l-56.3 82.8 43.6 16.1 77.4-109.2z" fill="#edf3f5"/></g><g><path d="m264.4 245.4s28.4-8.5 49.6-4l2 10.8-54.4 2.7z" fill="#dee3e5"/></g><g><path d="m234.6 410h78.7v82.2h-78.7z" fill="#3e434f"/></g><g><path d="m270.3 212.6h38.7v50h-38.7z" fill="#f5b1a6"/></g><g><path d="m270.2 246.5s15.6 22.6 38.7-2.9c0 0 13.1 2.5 25.4 5.8l-.8 160.4-95.4 1.6s0-108.6 7.4-158.8z" fill="#4cb9af"/></g><g><path d="m314.1 241.4s-9.9 27.4-18.4 132.6c-1.9 23.3-3.7 46.5-4.3 69.9l-1.2 48.7h79.3s-32.7-102.9-27.7-166.3l10.7-75.1z" fill="#edf3f5"/></g><g><path d="m264.4 245.4s-23 181.8-9.8 246.8h-50.7s16.6-77.5 18.9-129.2c0 0 13.2-93.8 21.4-112.6z" fill="#e6ebed"/></g><g><path d="m386.8 297.5 8.3 80.4-43.6-.5-9.4-88.8c0-.1 0-.1 0-.2-1.3-13.1 1.1-26.3 6.8-38.2 0 .1 34 6 37.9 47.3z" fill="#f6faf8"/></g><g><path d="m314.1 241.4 18.2 32.6-26.8 49.5 10.5 11.9-23.1 77.7s6.1-120.5 21.2-171.7z" fill="#dee3e5"/></g><g><path d="m264.4 245.3-24.7 28 14 48.8-12.8 9.4 10.1 81.9s6.3-118.7 13.4-168.1z" fill="#dee3e5"/></g><g><path d="m399.6 122.2c-5.1 57.3-42.2 85.5-98.9 80.4s-113.4-43-108.3-100.2c5.1-57.3 55.2-99.6 111.9-94.5s100.4 57.1 95.3 114.3z" fill="#072e37"/></g><g><path d="m401.6 142.9c4.1 10.2-1 21.8-11.2 25.9s-27.2 1.2-31.3-9.1 6.4-24 16.6-28c10.2-4.1 21.8 1 25.9 11.2z" fill="#ffc1ae"/></g><g><path d="m188.7 137.3c-3.5 10.5 2.2 21.7 12.7 25.2s27.2-.4 30.7-10.8c3.5-10.5-7.7-23.6-18.2-27-10.5-3.6-21.8 2.1-25.2 12.6z" fill="#f4ada4"/></g><g><path d="m374 122.6c7.9 61.6-37.8 107.1-97.1 100.4-38.2-4.3-81.2-35.6-68.1-112 10.4-60.4 61.5-75.4 81.2-72.5 70.1 10.6 76.1 23.3 84 84.1z" fill="#ffc1ae"/></g><g><ellipse cx="253.7" cy="131.5" fill="#001b22" rx="13.5" ry="9.8" transform="matrix(.067 -.998 .998 .067 105.565 375.799)"/></g><g><ellipse cx="251.7" cy="131.4" fill="#fff" rx="6.8" ry="5" transform="matrix(.067 -.998 .998 .067 103.751 373.836)"/></g><g><ellipse cx="323.1" cy="136.1" fill="#001b22" rx="13.5" ry="9.8" transform="matrix(.067 -.998 .998 .067 165.663 449.362)"/></g><g><ellipse cx="321.1" cy="136.1" fill="#fff" rx="6.8" ry="5" transform="matrix(.067 -.998 .998 .067 163.85 447.399)"/></g><g><path d="m241.5 97.1c-.9 0-1.7-.6-2-1.5-.3-1.1.3-2.2 1.4-2.5 16.1-4.7 29.8-1.4 30.4-1.2 1.1.3 1.8 1.4 1.5 2.5s-1.4 1.8-2.5 1.5c-.2-.1-13.3-3.2-28.3 1.2-.1 0-.3 0-.5 0z" fill="#001b22"/></g><g><path d="m292.8 153.6c-.2 3.6-3.3 6.3-6.9 6.1s-1.2-3-1-6.6-1.8-6.7 1.8-6.4 6.3 3.4 6.1 6.9z" fill="#f3a29e"/></g><g><path d="m257.5 15.1s14.6 39.6 43.7 73.2c19.8 22.8 58.5 35.9 77.9 40.1 0 .1 19.1-111.5-121.6-113.3z" fill="#072e37"/></g><g><g><path d="m243 169.1c-1 0-2 0-3-.1-10.5-.7-19.3-4.6-25.5-11.3-6.1-6.5-9.1-15.3-8.4-24.7.7-9.6 4.8-18.3 11.7-24.6 7.2-6.6 16.8-9.8 27-9.1 10.4.7 19.9 5 26.9 12 7 7.1 10.5 16.2 9.8 25.5-1.3 18.3-18.2 32.3-38.5 32.3zm-.9-66c-8.2 0-15.8 2.9-21.6 8.2-6.2 5.6-9.9 13.4-10.5 21.9-.6 8.3 2 16.1 7.4 21.8 5.5 5.9 13.4 9.4 22.9 10.1.9.1 1.9.1 2.8.1 18.2 0 33.4-12.4 34.5-28.6.6-8.2-2.5-16.2-8.7-22.5-6.2-6.4-14.9-10.2-24.3-10.9-.9 0-1.7-.1-2.5-.1z" fill="#ededed"/></g><g><path d="m332.1 174.7c-1 0-2 0-3.1-.1-10.4-.7-19.9-5-26.9-12-7-7.1-10.5-16.2-9.8-25.5.6-9.4 5.3-17.9 13.2-23.9 7.8-6 17.9-8.9 28.3-8.2s19.9 5 26.9 12c7 7.1 10.5 16.2 9.8 25.5-.6 9.4-5.3 17.8-13.2 23.9-7.1 5.4-15.9 8.3-25.2 8.3zm-1.4-65.9c-8.4 0-16.4 2.6-22.8 7.5-7 5.4-11.1 12.9-11.7 21.1s2.5 16.2 8.7 22.5c6.2 6.4 14.9 10.2 24.3 10.9s18.5-2 25.6-7.4c7-5.4 11.1-12.9 11.7-21.1s-2.5-16.2-8.7-22.5c-6.2-6.4-14.9-10.2-24.3-10.9-.9-.1-1.9-.1-2.8-.1z" fill="#ededed"/></g><g><path d="m284.9 129.6h3.9v14.7h-3.9z" fill="#ededed" transform="matrix(.035 -.999 .999 .035 139.972 418.877)"/></g><g><path d="m368.3 136.8c-.8 0-1.6-.5-1.8-1.3-.4-1 .2-2.1 1.2-2.5l12.1-4.4c1-.4 2.1.2 2.5 1.2s-.2 2.1-1.2 2.5l-12.1 4.4c-.2 0-.4.1-.7.1z" fill="#ededed"/></g></g><g><path d="m340.4 100c-.3 0-.5 0-.8-.1-14.5-5.8-27.9-4-28-4-1.1.2-2.2-.6-2.3-1.7-.2-1.1.6-2.2 1.7-2.3.6-.1 14.5-2 30.1 4.2 1.1.4 1.6 1.6 1.1 2.7-.2.7-.9 1.2-1.8 1.2z" fill="#001b22"/></g><g><path d="m294.8 181.5c-4.7.8-8.9-.4-9.3-2.6-.4-2.3 3.9-.7 8.6-1.5s8.1-3.7 8.5-1.5c.5 2.3-3 4.8-7.8 5.6z" fill="#fe6c70"/></g><g><path d="m351.5 377.4-32.6 69.3 30.3 21.5 45.9-90.3z" fill="#f6faf8"/></g><g><path d="m317 444.5 35.6 25.4-1.2 1.7-35.8-25.3z" fill="#dee3e5"/></g><g><path d="m115.9 261.5 70.4 93.3c13.9 16.3 13.8 32.6-10.4 41.1-.4.2-.9.1-1.4.1-12.4 1-24.3-5.1-31.2-15.4l-52.8-100.4z" fill="#edf3f5"/></g><g><path d="m88.5 235.4s-11.3 2.3-16.8 12.5c-.6 1.1-.7 2.4-.3 3.5 1.5 4.3 6.6 13.4 11.3 11.5 0 0 2-1 2.2-4 0 0 3.9 1 5.6-4.2 0 0 3.8-1.6 3.9-5.8.1.2-.8-6.7-5.9-13.5z" fill="#ffc1ae"/></g><g><path d="m112.6 254.2c-.1-3.2-.4-9.8-1.8-14.2-.5-1.6-1.7-2.9-3.2-3.5-2.3-1-6.3-2.7-10-3.1-3.2-.4-7.4-.7-6.9 2.7.2 1.7 2.4 6 9.6 7.1 0 0-8.9 8.3-2.8 14.8 0 0 7.3 6.4 13.7-.2.9-1 1.4-2.3 1.4-3.6z" fill="#ffc1ae"/></g><g><g><path d="m297.1 306.1h41.4v25.9h-41.4z" fill="#b5b5b6"/></g><g><path d="m297.2 305.9h40.4v25.5h-40.4z" fill="#f7f8f8"/></g><g><g><path d="m300.6 324.7h16.2v2.1h-16.2z" fill="#dcdddd"/></g><g><path d="m300.6 318.1h16.2v2.1h-16.2z" fill="#dcdddd"/></g><g><path d="m300.6 311.5h16.2v2.1h-16.2z" fill="#dcdddd"/></g></g><g><path d="m314.5 298.6h5.6v9.5h-5.6z" fill="#072e37"/></g><g><path d="m319.7 311.2h14.3v16h-14.3z" fill="#dcdddd"/></g></g></g></g></svg>