<?xml version="1.0" encoding="iso-8859-1"?>
<!-- Generator: Adobe Illustrator 19.0.0, SVG Export Plug-In . SVG Version: 6.00 Build 0)  -->
<svg version="1.1" id="Capa_1" xmlns="http://www.w3.org/2000/svg" xmlns:xlink="http://www.w3.org/1999/xlink" x="0px" y="0px"
	 viewBox="0 0 512 512" style="enable-background:new 0 0 512 512;" xml:space="preserve">
<g>
	<path style="fill:#45748C;" d="M124.988,387.012c-2.923-2.923-7.66-2.922-10.582,0L2.192,499.226c-2.922,2.922-2.923,7.66,0,10.582
		s7.66,2.922,10.582,0l112.214-112.214C127.91,394.672,127.911,389.934,124.988,387.012z"/>
	<path style="fill:#45748C;" d="M123.301,426.65L85.35,388.699c-2.372-2.372-2.372-6.217,0-8.588l31.011-31.011l46.539,46.539
		l-31.011,31.011C129.517,429.021,125.672,429.021,123.301,426.65z"/>
</g>
<path style="fill:#2C5871;" d="M139.631,372.369L108.62,403.38c-2.372,2.372-6.217,2.372-8.588,0l23.269,23.269
	c2.372,2.372,6.217,2.372,8.588,0l31.011-31.011L139.631,372.369z"/>
<path style="fill:#E1EFFB;" d="M183.569,430.751l-102.32-102.32c-4.166-4.166-4.166-10.921,0-15.087L297.211,97.383L414.618,214.79
	L198.656,430.751C194.489,434.917,187.735,434.917,183.569,430.751z"/>
<path style="fill:#CCDFED;" d="M379.183,179.355L163.222,395.317c-4.166,4.166-10.921,4.166-15.087,0l35.434,35.434
	c4.166,4.166,10.921,4.166,15.087,0l215.962-215.962L379.183,179.355z"/>
<path style="fill:#10C4C4;" d="M185.458,209.135L81.249,313.344c-4.166,4.166-4.166,10.921,0,15.087l102.32,102.32
	c4.166,4.166,10.921,4.166,15.087,0l104.209-104.209L185.458,209.135z"/>
<path style="fill:#0FB0C0;" d="M163.222,395.317c-4.166,4.166-10.921,4.166-15.087,0l35.434,35.434
	c4.166,4.166,10.921,4.166,15.087,0l104.209-104.209l-35.434-35.434L163.222,395.317z"/>
<rect x="322.288" y="22.798" transform="matrix(-0.7071 -0.7071 0.7071 -0.7071 472.4479 528.3573)" style="fill:#CCCCCC;" width="46.725" height="287.067"/>
<rect x="342.522" y="31.176" transform="matrix(-0.7071 -0.7071 0.7071 -0.7071 480.8409 548.5894)" style="fill:#B3B3B3;" width="23.03" height="287.067"/>
<path style="fill:#45748C;" d="M411.412,236.929L275.071,100.588c-2.426-2.426-2.426-6.36,0-8.786l13.541-13.541
	c2.426-2.426,6.36-2.426,8.786,0L433.74,214.602c2.426,2.426,2.426,6.36,0,8.786l-13.541,13.541
	C417.772,239.355,413.839,239.355,411.412,236.929z"/>
<path style="fill:#2C5871;" d="M433.74,214.602l-35.855-35.855c2.426,2.426,2.426,6.36,0,8.786l-13.541,13.541
	c-2.426,2.426-6.36,2.426-8.786,0l35.855,35.855c2.426,2.426,6.36,2.426,8.786,0l13.541-13.541
	C436.166,220.961,436.166,217.028,433.74,214.602z"/>
<path style="fill:#68686B;" d="M482.439,125.135l-95.574-95.574c-5.454-5.454-5.454-14.297,0-19.751l8.503-8.503
	c1.742-1.742,4.565-1.742,6.307,0l109.019,109.019c1.742,1.742,1.742,4.565,0,6.307l-8.503,8.503
	C496.736,130.589,487.893,130.589,482.439,125.135z"/>
<path style="fill:#57565C;" d="M510.694,110.325L474.839,74.47c1.742,1.742,1.742,4.565,0,6.307l-8.503,8.503
	c-5.454,5.454-14.297,5.454-19.751,0l35.855,35.855c5.454,5.454,14.297,5.455,19.752,0l8.503-8.503
	C512.435,114.89,512.435,112.066,510.694,110.325z"/>
<g>
	<path style="fill:#CCDFED;" d="M299.419,193.457c1.462,1.461,3.377,2.192,5.292,2.192s3.83-0.731,5.292-2.192
		c2.922-2.922,2.922-7.66,0-10.582l-49.142-49.141l0,0l-10.583,10.583L299.419,193.457z"/>
	<path style="fill:#CCDFED;" d="M237.795,223.686c1.462,1.461,3.377,2.192,5.292,2.192s3.83-0.731,5.292-2.192
		c2.922-2.922,2.922-7.66,0-10.582l-33.444-33.444l0,0l-10.583,10.583L237.795,223.686z"/>
</g>
<g>
	<path style="fill:#21D8DE;" d="M207.565,285.31c1.462,1.461,3.376,2.192,5.292,2.192c1.915,0,3.83-0.731,5.292-2.192
		c2.922-2.922,2.922-7.66,0-10.582l-49.141-49.141l0,0l-10.583,10.583L207.565,285.31z"/>
	<path style="fill:#21D8DE;" d="M145.941,315.539c1.462,1.461,3.376,2.192,5.292,2.192c1.915,0,3.83-0.731,5.292-2.192
		c2.922-2.922,2.922-7.66,0-10.582l-33.443-33.444l0,0l-10.583,10.583L145.941,315.539z"/>
</g>
<g>
</g>
<g>
</g>
<g>
</g>
<g>
</g>
<g>
</g>
<g>
</g>
<g>
</g>
<g>
</g>
<g>
</g>
<g>
</g>
<g>
</g>
<g>
</g>
<g>
</g>
<g>
</g>
<g>
</g>
</svg>
