<svg id="Capa_1" enable-background="new 0 0 512 512" height="512" viewBox="0 0 512 512" width="512" xmlns="http://www.w3.org/2000/svg"><g><g><g><path d="m332.089 18.162v475.676c0 5.635-4.564 10.189-10.189 10.189h-311.711c-5.625-.001-10.189-4.554-10.189-10.189v-475.676c0-5.635 4.564-10.188 10.189-10.188h311.712c5.624 0 10.188 4.553 10.188 10.188z" fill="#f8f3f1"/><g fill="#e5e1e5"><path d="m332.089 206.438v287.4c0 5.635-4.564 10.189-10.189 10.189h-33.615c-53.384-25.075-90.347-79.334-90.347-142.217.001-78.953 58.268-144.298 134.151-155.372z"/><path d="m332.083 18.158v475.684c0 5.624-4.554 10.188-10.188 10.188h-37.931c5.624 0 10.188-4.564 10.188-10.188v-475.684c0-5.624-4.564-10.188-10.188-10.188h37.931c5.634-.001 10.188 4.564 10.188 10.188z"/></g></g><g><g><path d="m94.279 117.225h-39.425c-6.08 0-11.009-4.929-11.009-11.009v-39.425c0-6.08 4.929-11.009 11.009-11.009h39.424c6.08 0 11.009 4.929 11.009 11.009v39.424c0 6.081-4.928 11.01-11.008 11.01z" fill="#35bcc7"/><path d="m105.291 66.793v39.422c0 6.077-4.932 11.009-11.009 11.009h-28.369c6.077 0 11.009-4.932 11.009-11.009v-39.422c0-6.077-4.932-11.009-11.009-11.009h28.369c6.077 0 11.009 4.932 11.009 11.009z" fill="#20abb9"/><g><path d="m74.248 101.339c-1.977 0-3.955-.755-5.464-2.263l-8.336-8.336c-3.017-3.017-3.017-7.909 0-10.927 3.018-3.017 7.909-3.017 10.928 0l2.872 2.873 32.571-32.572c3.018-3.017 7.909-3.017 10.928 0 3.017 3.017 3.017 7.909 0 10.927l-38.035 38.035c-1.509 1.509-3.487 2.263-5.464 2.263z" fill="#fdd330"/></g></g><g><path d="m174.193 96.245h-24.37c-4.268 0-7.726-3.459-7.726-7.726s3.459-7.726 7.726-7.726h24.37c4.268 0 7.726 3.459 7.726 7.726.001 4.267-3.458 7.726-7.726 7.726z" fill="#c9c0c7"/></g><g><path d="m288.24 124.951h-138.417c-4.268 0-7.726-3.459-7.726-7.726s3.459-7.726 7.726-7.726h138.417c4.268 0 7.726 3.459 7.726 7.726.001 4.266-3.458 7.726-7.726 7.726z" fill="#c9c0c7"/></g></g><g><g><path d="m94.279 217.366h-39.425c-6.08 0-11.009-4.929-11.009-11.009v-39.424c0-6.08 4.929-11.009 11.009-11.009h39.424c6.08 0 11.009 4.929 11.009 11.009v39.424c0 6.08-4.928 11.009-11.008 11.009z" fill="#35bcc7"/><path d="m105.291 166.934v39.422c0 6.077-4.932 11.009-11.009 11.009h-28.369c6.077 0 11.009-4.932 11.009-11.009v-39.422c0-6.077-4.932-11.009-11.009-11.009h28.369c6.077 0 11.009 4.932 11.009 11.009z" fill="#20abb9"/><g><path d="m74.248 201.48c-1.977 0-3.955-.754-5.463-2.263l-8.336-8.336c-3.018-3.017-3.018-7.909-.001-10.927 3.018-3.017 7.91-3.018 10.927 0l2.873 2.872 32.571-32.572c3.018-3.017 7.909-3.017 10.928 0 3.017 3.017 3.017 7.909 0 10.927l-38.035 38.035c-1.509 1.51-3.487 2.264-5.464 2.264z" fill="#fdd330"/></g></g><g><path d="m174.193 196.386h-24.37c-4.268 0-7.726-3.459-7.726-7.726s3.459-7.726 7.726-7.726h24.37c4.268 0 7.726 3.459 7.726 7.726s-3.458 7.726-7.726 7.726z" fill="#c9c0c7"/></g><g><path d="m288.24 225.093h-138.417c-4.268 0-7.726-3.459-7.726-7.726s3.459-7.726 7.726-7.726h138.417c4.268 0 7.726 3.459 7.726 7.726s-3.458 7.726-7.726 7.726z" fill="#c9c0c7"/></g></g><g><g><path d="m94.279 317.507h-39.425c-6.08 0-11.009-4.929-11.009-11.009v-39.424c0-6.08 4.929-11.009 11.009-11.009h39.424c6.08 0 11.009 4.929 11.009 11.009v39.424c0 6.081-4.928 11.009-11.008 11.009z" fill="#fca62f"/><path d="m105.291 267.076v39.422c0 6.077-4.932 11.009-11.009 11.009h-28.369c6.077 0 11.009-4.932 11.009-11.009v-39.422c0-6.077-4.932-11.009-11.009-11.009h28.369c6.077 0 11.009 4.932 11.009 11.009z" fill="#f98824"/></g><g><path d="m174.193 296.528h-24.37c-4.268 0-7.726-3.459-7.726-7.726s3.459-7.726 7.726-7.726h24.37c4.268 0 7.726 3.459 7.726 7.726.001 4.266-3.458 7.726-7.726 7.726z" fill="#c9c0c7"/></g><g><path d="m288.24 325.234h-138.417c-4.268 0-7.726-3.459-7.726-7.726s3.459-7.726 7.726-7.726h138.417c4.268 0 7.726 3.459 7.726 7.726.001 4.267-3.458 7.726-7.726 7.726z" fill="#c9c0c7"/></g></g><g><g><path d="m94.279 417.649h-39.425c-6.08 0-11.009-4.929-11.009-11.009v-39.424c0-6.08 4.929-11.009 11.009-11.009h39.424c6.08 0 11.009 4.929 11.009 11.009v39.424c0 6.08-4.928 11.009-11.008 11.009z" fill="#fee265"/><path d="m105.291 367.217v39.422c0 6.077-4.932 11.009-11.009 11.009h-28.369c6.077 0 11.009-4.932 11.009-11.009v-39.422c0-6.077-4.932-11.009-11.009-11.009h28.369c6.077 0 11.009 4.932 11.009 11.009z" fill="#fdd330"/></g><g><path d="m174.193 396.67h-24.37c-4.268 0-7.726-3.459-7.726-7.726s3.459-7.726 7.726-7.726h24.37c4.268 0 7.726 3.459 7.726 7.726.001 4.266-3.458 7.726-7.726 7.726z" fill="#c9c0c7"/></g><g><path d="m288.24 425.375h-138.417c-4.268 0-7.726-3.459-7.726-7.726s3.459-7.726 7.726-7.726h138.417c4.268 0 7.726 3.459 7.726 7.726s-3.458 7.726-7.726 7.726z" fill="#c9c0c7"/></g></g></g><g><g><g><g><g><g><circle cx="354.967" cy="317.508" fill="#5591d6" r="157.033"/><path d="m511.996 317.507c.008 86.726-70.299 157.033-157.024 157.033-5.802 0-11.528-.318-17.163-.928 78.65-8.552 139.861-75.181 139.861-156.105s-61.22-147.553-139.87-156.105c5.635-.61 11.361-.928 17.163-.928 86.726 0 157.033 70.307 157.033 157.033z" fill="#1475cb"/><circle cx="354.967" cy="317.508" fill="#f8f3f1" r="120.313"/><path d="m475.282 317.507c0 66.444-53.866 120.31-120.318 120.31-4.904 0-9.745-.294-14.498-.865 59.612-7.158 105.812-57.905 105.812-119.445s-46.201-112.287-105.813-119.445c4.753-.571 9.594-.865 14.498-.865 66.452 0 120.319 53.866 120.319 120.31z" fill="#e5e1e5"/></g></g></g><g><g><g><path d="m370.625 367.247-25.3-42.185 20.948-12.564 25.3 42.185c1.59 2.652.73 6.091-1.922 7.681l-11.345 6.804c-2.652 1.591-6.091.731-7.681-1.921z" fill="#fee265"/></g></g></g><g><g><path d="m355.225 313.069c-4.268 0-7.726-3.459-7.726-7.726v-48.083c0-4.267 3.459-7.726 7.726-7.726s7.726 3.459 7.726 7.726v48.083c.001 4.267-3.458 7.726-7.726 7.726z" fill="#5591d6"/></g></g><g><circle cx="354.967" cy="317.508" fill="#fb9927" r="17.314"/></g></g><g><g><g><g id="XMLID_944_"><path d="m444.953 325.03c-.012 0-.023 0-.035 0h-.115c-4.267-.019-7.711-3.493-7.692-7.76.019-4.256 3.475-7.693 7.725-7.693h.035l.115.001c4.267.019 7.711 3.493 7.692 7.76-.019 4.255-3.475 7.692-7.725 7.692z" fill="#b9afb9"/></g></g><g><g id="XMLID_943_"><path d="m265.098 325.03h-.115c-4.268 0-7.726-3.459-7.726-7.726s3.459-7.726 7.726-7.726h.115c4.268 0 7.726 3.459 7.726 7.726 0 4.266-3.459 7.726-7.726 7.726z" fill="#b9afb9"/></g></g></g><g><g><g id="XMLID_942_"><path d="m354.71 235.16c-4.268 0-7.726-3.459-7.726-7.726v-.115c0-4.267 3.459-7.726 7.726-7.726s7.726 3.459 7.726 7.726v.115c.001 4.267-3.458 7.726-7.726 7.726z" fill="#b9afb9"/></g></g></g><g><g><g id="XMLID_941_"><path d="m355.225 415.014c-4.268 0-7.726-3.459-7.726-7.726v-.115c0-4.267 3.459-7.726 7.726-7.726s7.726 3.459 7.726 7.726v.115c.001 4.266-3.458 7.726-7.726 7.726z" fill="#b9afb9"/></g></g></g><g><g><g id="XMLID_940_"><path d="m309.817 247.331c-2.674 0-5.273-1.389-6.703-3.873l-.057-.1c-2.129-3.698-.857-8.422 2.841-10.551 3.697-2.128 8.421-.858 10.551 2.841l.057.1c2.129 3.698.857 8.422-2.841 10.551-1.214.699-2.54 1.032-3.848 1.032z" fill="#b9afb9"/></g></g></g><g><g><g id="XMLID_939_"><path d="m277.003 280.32c-1.307 0-2.631-.332-3.844-1.03l-.101-.058c-3.699-2.127-4.974-6.85-2.847-10.55 2.128-3.7 6.852-4.972 10.549-2.847l.101.058c3.699 2.127 4.974 6.85 2.847 10.55-1.429 2.486-4.03 3.877-6.705 3.877z" fill="#b9afb9"/></g></g><g><g id="XMLID_938_"><path d="m433.018 369.8c-1.308 0-2.634-.332-3.848-1.032l-.1-.057c-3.698-2.129-4.97-6.853-2.841-10.551 2.131-3.698 6.856-4.969 10.551-2.841l.1.057c3.698 2.129 4.97 6.853 2.841 10.551-1.43 2.483-4.03 3.873-6.703 3.873z" fill="#b9afb9"/></g></g></g><g><g><g id="XMLID_937_"><path d="m400.118 247.331c-1.303 0-2.623-.33-3.834-1.024-3.702-2.121-4.984-6.842-2.863-10.545l.057-.1c2.122-3.703 6.843-4.983 10.545-2.864 3.702 2.121 4.984 6.842 2.863 10.545l-.057.1c-1.428 2.492-4.032 3.888-6.711 3.888z" fill="#b9afb9"/></g></g><g><g id="XMLID_936_"><path d="m309.745 402.831c-1.308 0-2.634-.332-3.848-1.032-3.698-2.129-4.97-6.853-2.841-10.551l.057-.1c2.132-3.699 6.857-4.969 10.551-2.841 3.698 2.129 4.97 6.853 2.841 10.551l-.057.1c-1.43 2.484-4.029 3.873-6.703 3.873z" fill="#b9afb9"/></g></g></g><g><g><g id="XMLID_935_"><path d="m432.932 280.319c-2.675 0-5.276-1.391-6.705-3.876-2.127-3.7-.852-8.423 2.847-10.55l.101-.058c3.698-2.127 8.422-.852 10.549 2.847 2.127 3.7.852 8.423-2.847 10.55l-.101.058c-1.214.697-2.539 1.029-3.844 1.029z" fill="#b9afb9"/></g></g><g><g id="XMLID_934_"><path d="m276.918 369.8c-2.663 0-5.255-1.378-6.688-3.848-2.143-3.69-.889-8.419 2.801-10.561l.1-.058c3.689-2.142 8.418-.889 10.561 2.801s.889 8.419-2.801 10.561l-.1.058c-1.221.71-2.557 1.047-3.873 1.047z" fill="#b9afb9"/></g></g></g></g><g><g><g><g id="XMLID_932_"><path d="m400.189 402.831c-2.674 0-5.273-1.389-6.703-3.873l-.057-.1c-2.129-3.698-.857-8.422 2.841-10.551 3.697-2.129 8.422-.858 10.551 2.841l.057.1c2.129 3.698.857 8.422-2.841 10.551-1.214.699-2.54 1.032-3.848 1.032z" fill="#b9afb9"/></g></g></g></g></g></g></g></svg>